<svg id="analytics_black_24dp" xmlns="http://www.w3.org/2000/svg" width="36" height="36" viewBox="0 0 36 36">
    <defs>
        <style>
            .cls-3{fill:#0a7aff}
        </style>
    </defs>
    <path id="Rectangle_480" data-name="Rectangle 480" transform="translate(7 7)" style="opacity:.3;fill:#0a7aff" d="M0 0h22v22H0z"/>
    <g id="Group_1852" data-name="Group 1852">
        <path id="Rectangle_481" data-name="Rectangle 481" style="fill:none" d="M0 0h36v36H0z"/>
        <g id="Group_1851" data-name="Group 1851" transform="translate(4.5 4.5)">
            <path id="Path_11696" data-name="Path 11696" class="cls-3" d="M27 3H6a3.009 3.009 0 0 0-3 3v21a3.009 3.009 0 0 0 3 3h21a3.009 3.009 0 0 0 3-3V6a3.009 3.009 0 0 0-3-3zm0 24H6V6h21z" transform="translate(-3 -3)"/>
            <path id="Rectangle_482" data-name="Rectangle 482" class="cls-3" transform="translate(6.5 13.5)" d="M0 0h3v8H0z"/>
            <path id="Rectangle_483" data-name="Rectangle 483" class="cls-3" transform="translate(18.5 6.5)" d="M0 0h3v15H0z"/>
            <path id="Rectangle_484" data-name="Rectangle 484" class="cls-3" transform="translate(12.5 16.5)" d="M0 0h3v5H0z"/>
            <path id="Rectangle_485" data-name="Rectangle 485" class="cls-3" transform="translate(12.5 10.5)" d="M0 0h3v3H0z"/>
        </g>
    </g>
</svg>
