<svg id="download-cta-card-apple" xmlns="http://www.w3.org/2000/svg" width="160" height="54" viewBox="0 0 160 54">
    <defs>
        <style>
            .cls-1{fill:#fff}
        </style>
    </defs>
    <rect id="Rectangle_1153" data-name="Rectangle 1153" width="160" height="54" rx="4"/>
    <path id="Path_14787" data-name="Path 14787" class="cls-1" d="M27.456 20.038a6.692 6.692 0 0 1 3.2-5.609 6.856 6.856 0 0 0-5.413-2.92c-2.263-.23-4.461 1.361-5.626 1.361s-2.952-1.329-4.871-1.3a7.2 7.2 0 0 0-6.069 3.69c-2.624 4.527-.656 11.186 1.853 14.844 1.247 1.8 2.723 3.805 4.642 3.74 1.87-.082 2.575-1.2 4.839-1.2s2.9 1.2 4.855 1.148c2.017-.033 3.28-1.8 4.494-3.608a14.827 14.827 0 0 0 2.05-4.2 6.462 6.462 0 0 1-3.936-5.937z" transform="translate(4.611 7.353)"/>
    <path id="Path_14788" data-name="Path 14788" class="cls-1" d="M19.1 11.884a6.577 6.577 0 0 0 1.513-4.724 6.708 6.708 0 0 0-4.347 2.247 6.282 6.282 0 0 0-1.542 4.543 5.544 5.544 0 0 0 4.376-2.066z" transform="translate(9.272 4.584)"/>
    <path id="Path_14789" data-name="Path 14789" class="cls-1" d="M32.521 25.039h5.085L35.1 17.658h-.07l-2.493 7.381zm5.741 2.1h-6.4l-1.525 4.543H27.6l6.069-16.812h2.821l6.069 16.812H39.8l-1.542-4.543z" transform="translate(17.836 9.52)"/>
    <path id="Path_14790" data-name="Path 14790" class="cls-1" d="M46.619 23.82c0-2.46-1.279-4.1-3.231-4.1-1.919 0-3.215 1.657-3.215 4.1s1.3 4.133 3.215 4.133c1.968 0 3.231-1.64 3.231-4.133zm2.591 0c0 3.805-2.034 6.249-5.117 6.249a4.15 4.15 0 0 1-3.854-2.132h-.049v6.069h-2.51V17.7h2.427v2.034h.049a4.346 4.346 0 0 1 3.887-2.165c3.116 0 5.167 2.46 5.167 6.266z" transform="translate(24.394 11.247)"/>
    <path id="Path_14791" data-name="Path 14791" class="cls-1" d="M54.839 23.82c0-2.46-1.279-4.1-3.231-4.1-1.919 0-3.215 1.657-3.215 4.1s1.3 4.133 3.215 4.133c1.968 0 3.231-1.64 3.231-4.133zm2.591 0c0 3.805-2.05 6.249-5.117 6.249a4.15 4.15 0 0 1-3.854-2.132h-.066v6.069H45.9V17.7h2.444v2.034h.033a4.347 4.347 0 0 1 3.9-2.165c3.116 0 5.167 2.46 5.167 6.266z" transform="translate(29.747 11.247)"/>
    <path id="Path_14792" data-name="Path 14792" class="cls-1" d="M59.365 27.1c.18 1.673 1.8 2.772 4.018 2.772 2.116 0 3.641-1.1 3.641-2.608 0-1.312-.919-2.083-3.1-2.624l-2.181-.525c-3.084-.738-4.511-2.181-4.511-4.527 0-2.9 2.526-4.888 6.118-4.888 3.543 0 5.97 1.985 6.069 4.888h-2.542c-.164-1.673-1.542-2.69-3.559-2.69s-3.412 1.033-3.412 2.509c0 1.2.886 1.886 3.051 2.427l1.837.459c3.444.82 4.888 2.2 4.888 4.658 0 3.133-2.509 5.1-6.5 5.1-3.723 0-6.233-1.919-6.4-4.953z" transform="translate(36.846 9.411)"/>
    <path id="Path_14793" data-name="Path 14793" class="cls-1" d="M69.627 15.88v2.9h2.345v1.985h-2.345v6.758c0 1.05.476 1.542 1.493 1.542.262 0 .656-.049.82-.066v1.971a6.971 6.971 0 0 1-1.394.131c-2.46 0-3.444-.935-3.444-3.313v-7.02H65.33v-1.985h1.788v-2.9z" transform="translate(42.379 10.166)"/>
    <path id="Path_14794" data-name="Path 14794" class="cls-1" d="M79.254 23.826c0-2.624-1.214-4.2-3.248-4.2s-3.248 1.575-3.248 4.2 1.214 4.215 3.248 4.215 3.248-1.558 3.248-4.215zm-9.054 0c0-3.854 2.263-6.266 5.806-6.266s5.806 2.411 5.806 6.266-2.247 6.282-5.806 6.282S70.2 27.7 70.2 23.826z" transform="translate(45.575 11.242)"/>
    <path id="Path_14795" data-name="Path 14795" class="cls-1" d="M78.54 17.7h2.411v2.083H81a2.92 2.92 0 0 1 2.952-2.214 3.854 3.854 0 0 1 .869.1v2.345a3.543 3.543 0 0 0-1.148-.164 2.526 2.526 0 0 0-2.624 2.838v7.25h-2.493V17.7z" transform="translate(51.134 11.247)"/>
    <path id="Path_14796" data-name="Path 14796" class="cls-1" d="M85.249 22.71h6.118a2.952 2.952 0 0 0-3-3.116 3.116 3.116 0 0 0-3.116 3.116zm8.5 3.641a4.921 4.921 0 0 1-5.281 3.756c-3.559 0-5.773-2.395-5.773-6.233s2.231-6.315 5.675-6.315c3.4 0 5.527 2.313 5.527 6.036v.853h-8.66v.164a3.2 3.2 0 0 0 3.3 3.461 2.772 2.772 0 0 0 2.821-1.722z" transform="translate(53.79 11.242)"/>
    <path id="Path_14797" data-name="Path 14797" class="cls-1" d="M29.893 14.108h1.525a2.9 2.9 0 0 0 0-5.806h-1.525v5.79zM31.55 7.17a4.035 4.035 0 1 1 0 8.07h-2.92V7.17z" transform="translate(18.49 4.59)"/>
    <path id="Path_14798" data-name="Path 14798" class="cls-1" d="M38.111 11.248c0-1.312-.59-2.1-1.64-2.1s-1.64.771-1.64 2.1.59 2.1 1.64 2.1 1.64-.772 1.64-2.1zm-4.511 0a2.887 2.887 0 1 1 2.87 3.166 2.788 2.788 0 0 1-2.87-3.166z" transform="translate(21.705 5.531)"/>
    <path id="Path_14799" data-name="Path 14799" class="cls-1" d="M44.388 14.472h-1.23l-1.264-4.495h-.1l-1.244 4.495h-1.23L37.63 8.37h1.23l1.083 4.658h.1l1.245-4.658h1.148l1.247 4.658h.1l1.08-4.658h1.214l-1.673 6.1z" transform="translate(24.353 5.358)"/>
    <path id="Path_14800" data-name="Path 14800" class="cls-1" d="M43.63 8.418h1.148V9.4h.1a1.821 1.821 0 0 1 1.8-1.1 1.968 1.968 0 0 1 2.132 2.263V14.5H47.6v-3.638c0-.984-.426-1.476-1.312-1.476a1.394 1.394 0 0 0-1.46 1.558V14.5h-1.2z" transform="translate(28.249 5.31)"/>
    <path id="Path_14801" data-name="Path 14801" class="cls-1" d="M47.95 6.92h1.214v8.48H47.95z" transform="translate(31.048 4.43)"/>
    <path id="Path_14802" data-name="Path 14802" class="cls-1" d="M54.221 11.248c0-1.312-.59-2.1-1.64-2.1s-1.64.771-1.64 2.1.59 2.1 1.64 2.1 1.64-.772 1.64-2.1zm-4.511 0a2.887 2.887 0 1 1 2.89 3.165 2.788 2.788 0 0 1-2.887-3.166z" transform="translate(32.191 5.531)"/>
    <path id="Path_14803" data-name="Path 14803" class="cls-1" d="M57.9 12.269v-.508l-1.493.1c-.836.049-1.214.328-1.214.869s.476.869 1.132.869a1.443 1.443 0 0 0 1.575-1.33zm-3.92.525c0-1.1.82-1.739 2.263-1.821l1.64-.1v-.523c0-.656-.41-1.017-1.23-1.017-.672 0-1.148.246-1.279.689h-1.148c.115-1.05 1.1-1.722 2.477-1.722 1.525 0 2.395.754 2.395 2.05v4.166h-1.149v-.869h-.115a2.05 2.05 0 0 1-1.821.968 1.837 1.837 0 0 1-2.034-1.821z" transform="translate(34.985 5.314)"/>
    <path id="Path_14804" data-name="Path 14804" class="cls-1" d="M59.307 12.349c0 1.3.607 2.067 1.624 2.067s1.64-.787 1.64-2.067-.64-2.067-1.64-2.067-1.64.787-1.64 2.067zm-1.247 0c0-1.919.984-3.149 2.526-3.149a2 2 0 0 1 1.87 1.066h.1V6.92h1.2v8.48H62.6v-.968h-.1a2.116 2.116 0 0 1-1.914 1.068c-1.542 0-2.526-1.216-2.526-3.151z" transform="translate(37.643 4.43)"/>
    <path id="Path_14805" data-name="Path 14805" class="cls-1" d="M69.064 11.248c0-1.312-.574-2.1-1.64-2.1s-1.64.771-1.64 2.1.607 2.1 1.64 2.1 1.64-.772 1.64-2.1zm-4.494 0a2.887 2.887 0 1 1 2.87 3.166 2.788 2.788 0 0 1-2.87-3.166z" transform="translate(41.864 5.531)"/>
    <path id="Path_14806" data-name="Path 14806" class="cls-1" d="M69.05 8.418h1.15V9.4h.1a1.821 1.821 0 0 1 1.8-1.1 1.968 1.968 0 0 1 2.116 2.263V14.5h-1.2v-3.638c0-.984-.426-1.476-1.312-1.476a1.394 1.394 0 0 0-1.46 1.558V14.5h-1.2V8.418z" transform="translate(44.794 5.311)"/>
    <path id="Path_14807" data-name="Path 14807" class="cls-1" d="M77.2 7.456V9h1.31v1.017H77.2v3.116c0 .656.262.935.869.935a4.231 4.231 0 0 0 .459-.033v1a3.969 3.969 0 0 1-.656.066c-1.345 0-1.87-.476-1.87-1.64V10H75V8.982h.984V7.44z" transform="translate(48.658 4.763)"/>
    <path id="Path_14808" data-name="Path 14808" class="cls-1" d="M78.15 6.92h1.181v3.362h.1A1.87 1.87 0 0 1 81.283 9.2a2 2 0 0 1 2.1 2.263V15.4h-1.2v-3.641c0-.984-.459-1.476-1.312-1.476a1.427 1.427 0 0 0-1.525 1.558V15.4h-1.2V6.92z" transform="translate(50.884 4.43)"/>
    <path id="Path_14809" data-name="Path 14809" class="cls-1" d="M83.537 10.908H86.6a1.476 1.476 0 0 0-1.476-1.591 1.558 1.558 0 0 0-1.591 1.591zm4.232 1.968a2.46 2.46 0 0 1-2.657 1.755 2.772 2.772 0 0 1-2.821-3.149 2.8 2.8 0 0 1 2.82-3.182c1.706 0 2.723 1.165 2.723 3.084v.41h-4.3v.066a1.607 1.607 0 0 0 1.624 1.755 1.46 1.46 0 0 0 1.443-.738z" transform="translate(53.518 5.313)"/>
</svg>
