<svg xmlns="http://www.w3.org/2000/svg" width="96.089" height="81.223" viewBox="0 0 96.089 81.223">
    <defs>
        <style>
            .cls-1{fill:#0a7aff}
        </style>
    </defs>
    <g id="Group_5424" data-name="Group 5424" transform="translate(-.72 -.37)">
        <path id="Path_11650" data-name="Path 11650" class="cls-1" d="m34.82 127.128 24.6-5.692v-7.376l-24.6 5.692z" transform="translate(-14.512 -48.384)"/>
        <path id="Path_11651" data-name="Path 11651" class="cls-1" d="m97.185 15.45-7.335 1.7v7.531l7.335-1.695z" transform="translate(-37.932 -6.418)"/>
        <path id="Path_11652" data-name="Path 11652" class="cls-1" d="m89.82 88.157 7.341-1.706V39.82l-7.341 1.706z" transform="translate(-37.919 -16.789)"/>
        <path id="Path_11653" data-name="Path 11653" class="cls-1" d="M.72 36.68v7.513l7.169-1.654.1 53.076 7.272-1.7V33.32z" transform="translate(0 -14.023)"/>
        <path id="Path_11654" data-name="Path 11654" class="cls-1" d="m53.523 22.308-.006.029-.029.006v.2L47.469 60.53l-5.63-35.453-7.019 1.551 7.238 45.258 11.282-2.6 6.554-40.916 1.533-.37v-7.49z" transform="translate(-14.512 -8.571)"/>
        <path id="Path_11655" data-name="Path 11655" class="cls-1" d="m113.02 7.665.011 7.554L144.6 7.746V.37z" transform="translate(-47.793)"/>
        <path id="Path_11656" data-name="Path 11656" class="cls-1" d="m131.778 27.634-3.418 20.679-3.067-19.174-12.253 2.849v46.706l6.87-1.585V41l4.406 27.664 8.674-2.01 4.664-30.645v37.01l6.87-1.591V24.67z" transform="translate(-47.801 -10.342)"/>
    </g>
</svg>
