<svg xmlns="http://www.w3.org/2000/svg" width="37" height="37" viewBox="0 0 37 37">
    <path d="M18.222 9.416a8.733 8.733 0 0 0-5.317-8A8.412 8.412 0 0 0 3.51 3.195a8.853 8.853 0 0 0-1.95 9.421 8.525 8.525 0 0 0 7.976 5.333h8.685zm2.481 0a8.733 8.733 0 0 1 5.317-8 8.412 8.412 0 0 1 9.394 1.778 8.853 8.853 0 0 1 1.95 9.421 8.525 8.525 0 0 1-7.976 5.333H20.7zm0 19.553a8.733 8.733 0 0 0 5.317 8 8.412 8.412 0 0 0 9.394-1.778 8.853 8.853 0 0 0 1.95-9.421 8.525 8.525 0 0 0-7.976-5.333H20.7zM9.537 35.19a6.174 6.174 0 0 0 6.2-6.221v-6.222h-6.2a6.221 6.221 0 0 0 0 12.443zm8.685-6.221a8.733 8.733 0 0 1-5.317 8A8.412 8.412 0 0 1 3.51 35.19a8.853 8.853 0 0 1-1.95-9.421 8.525 8.525 0 0 1 7.976-5.333h8.685z" transform="translate(-.962 -.692)" style="fill:#212529"/>
</svg>
