<svg xmlns="http://www.w3.org/2000/svg" width="22.226" height="22.226" viewBox="0 0 22.226 22.226">
    <path d="M11.33 5.933a5.246 5.246 0 0 0-3.194-4.8A5.053 5.053 0 0 0 2.493 2.2a5.318 5.318 0 0 0-1.171 5.655 5.121 5.121 0 0 0 4.791 3.2h5.217zm1.491 0a5.246 5.246 0 0 1 3.194-4.8A5.053 5.053 0 0 1 21.658 2.2a5.318 5.318 0 0 1 1.171 5.659 5.121 5.121 0 0 1-4.791 3.2h-5.217zm0 11.745a5.246 5.246 0 0 0 3.194 4.8 5.053 5.053 0 0 0 5.643-1.068 5.318 5.318 0 0 0 1.171-5.659 5.121 5.121 0 0 0-4.791-3.2h-5.217zm-6.708 3.737a3.709 3.709 0 0 0 3.727-3.737v-3.737H6.113a3.737 3.737 0 0 0 0 7.474zm5.217-3.737a5.246 5.246 0 0 1-3.194 4.8 5.053 5.053 0 0 1-5.643-1.068 5.318 5.318 0 0 1-1.171-5.659 5.121 5.121 0 0 1 4.791-3.2h5.217z" transform="translate(-.962 -.692)" style="fill:#fff"/>
</svg>
