<svg data-name="date_range_black_24dp (2)" xmlns="http://www.w3.org/2000/svg" width="36" height="36" viewBox="0 0 36 36">
    <path data-name="Path 11693" d="M0 0h36v36H0z" style="fill:none"/>
    <path data-name="Path 11694" d="M5 9h21V6H5z" transform="translate(2.5 3)" style="opacity:.3;fill:#0a7aff"/>
    <path data-name="Path 11695" d="M9 15.5h3v3H9zM27 5h-1.5V2h-3v3h-12V2h-3v3H6a2.986 2.986 0 0 0-2.985 3L3 29a3 3 0 0 0 3 3h21a3.009 3.009 0 0 0 3-3V8a3.009 3.009 0 0 0-3-3zm0 24H6V14h21zm0-18H6V8h21zm-6 4.5h3v3h-3zm-6 0h3v3h-3z" transform="translate(1.5 1)" style="fill:#0a7aff"/>
</svg>
