<svg id="Group_1461" data-name="Group 1461" xmlns="http://www.w3.org/2000/svg" width="188.251" height="55.777" viewBox="0 0 188.251 55.777">
    <defs>
        <linearGradient id="linear-gradient" x1=".92" y1="-419.3" x2="-.38" y2="-419.97" gradientUnits="objectBoundingBox">
            <stop offset="0" stop-color="#00a0ff"/>
            <stop offset=".01" stop-color="#00a1ff"/>
            <stop offset=".26" stop-color="#00beff"/>
            <stop offset=".51" stop-color="#00d2ff"/>
            <stop offset=".76" stop-color="#00dfff"/>
            <stop offset="1" stop-color="#00e3ff"/>
        </linearGradient>
        <linearGradient id="linear-gradient-2" x1="1.08" y1="-1231.17" x2="-1.3" y2="-1231.17" gradientUnits="objectBoundingBox">
            <stop offset="0" stop-color="#ffe000"/>
            <stop offset=".41" stop-color="#ffbd00"/>
            <stop offset=".78" stop-color="orange"/>
            <stop offset="1" stop-color="#ff9c00"/>
        </linearGradient>
        <linearGradient id="linear-gradient-3" x1=".86" y1="-819.38" x2="-.5" y2="-821.14" gradientUnits="objectBoundingBox">
            <stop offset="0" stop-color="#ff3a44"/>
            <stop offset="1" stop-color="#c31162"/>
        </linearGradient>
        <linearGradient id="linear-gradient-4" x1="-.19" y1="-816.74" x2=".42" y2="-817.53" gradientUnits="objectBoundingBox">
            <stop offset="0" stop-color="#32a071"/>
            <stop offset=".07" stop-color="#2da771"/>
            <stop offset=".48" stop-color="#15cf74"/>
            <stop offset=".8" stop-color="#06e775"/>
            <stop offset="1" stop-color="#00f076"/>
        </linearGradient>
        <style>
            .cls-1{fill:#fff;stroke:#fff;stroke-miterlimit:10;stroke-width:.2px}.cls-8{isolation:isolate;opacity:.12}
        </style>
    </defs>
    <rect id="Rectangle_1146" data-name="Rectangle 1146" width="188.251" height="55.777" rx="4"/>
    <g id="Group_1458" data-name="Group 1458" transform="translate(57.641 9.57)">
        <path id="Path_14769" data-name="Path 14769" class="cls-1" d="M50.746 18.606a3.777 3.777 0 0 1-1.033 2.778 4.065 4.065 0 0 1-3.083 1.236 4.37 4.37 0 1 1 0-8.74 4.3 4.3 0 0 1 1.728.356 3.455 3.455 0 0 1 1.3.932l-.745.745a2.829 2.829 0 0 0-2.287-1 3.337 3.337 0 1 0 2.337 5.759 2.625 2.625 0 0 0 .711-1.694H46.63v-1.016h4.07a3.558 3.558 0 0 1 .051.644z" transform="translate(-42.26 -13.88)"/>
        <path id="Path_14770" data-name="Path 14770" class="cls-1" d="M53.075 15.016h-3.811v2.659h3.422v1.016h-3.422v2.642h3.811v1.016h-4.9V14h4.9z" transform="translate(-38.153 -13.797)"/>
        <path id="Path_14771" data-name="Path 14771" class="cls-1" d="M55.135 22.351h-1.068v-7.335H51.73V14h5.759v1.016h-2.354z" transform="translate(-35.69 -13.797)"/>
        <path id="Path_14772" data-name="Path 14772" class="cls-1" d="M57.58 22.351V14h1.067v8.351z" transform="translate(-31.631 -13.797)"/>
        <path id="Path_14773" data-name="Path 14773" class="cls-1" d="M62.432 22.351h-1.085v-7.335H59.01V14h5.759v1.016h-2.337z" transform="translate(-30.639 -13.797)"/>
        <path id="Path_14774" data-name="Path 14774" class="cls-1" d="M71.848 21.366a4.353 4.353 0 0 1-6.132 0 4.522 4.522 0 0 1 0-6.216 4.336 4.336 0 0 1 6.132 0 4.506 4.506 0 0 1 0 6.2zm-5.336-.711a3.218 3.218 0 0 0 4.539 0 3.557 3.557 0 0 0 0-4.794 3.218 3.218 0 0 0-4.539 0 3.557 3.557 0 0 0 0 4.793z" transform="translate(-26.844 -13.88)"/>
        <path id="Path_14775" data-name="Path 14775" class="cls-1" d="M70.45 22.357v-8.35h1.321l4.065 6.5h.034l-.034-1.607v-4.91H76.9v8.367h-1.114l-4.251-6.809h-.051l.051 1.609v5.2z" transform="translate(-22.701 -13.804)"/>
    </g>
    <path id="Path_14776" data-name="Path 14776" d="M79.754 28.826a5.928 5.928 0 1 0 5.946 5.928 5.844 5.844 0 0 0-5.945-5.928zm0 9.519a3.608 3.608 0 1 1 3.337-3.591 3.438 3.438 0 0 1-3.337 3.591zm-12.992-9.519a5.928 5.928 0 1 0 5.945 5.928 5.844 5.844 0 0 0-5.945-5.928zm0 9.519a3.608 3.608 0 1 1 3.354-3.591 3.438 3.438 0 0 1-3.354 3.591zm-15.448-7.69v2.507h6.013a5.251 5.251 0 0 1-1.355 3.167 6.165 6.165 0 0 1-4.658 1.846 6.691 6.691 0 0 1 0-13.381 6.42 6.42 0 0 1 4.539 1.8l1.779-1.779a8.774 8.774 0 0 0-6.318-2.541 9.214 9.214 0 0 0 0 18.429 8.418 8.418 0 0 0 6.437-2.592 8.3 8.3 0 0 0 2.168-5.878 8.231 8.231 0 0 0-.136-1.575zm63.18 1.945a5.5 5.5 0 0 0-5.081-3.777 5.64 5.64 0 0 0-5.59 5.928 5.81 5.81 0 0 0 5.878 5.928 5.894 5.894 0 0 0 4.946-2.625l-2.033-1.354a3.388 3.388 0 0 1-2.913 1.643 3.015 3.015 0 0 1-2.879-1.8l7.944-3.286zm-8.1 1.982a3.252 3.252 0 0 1 3.1-3.472 2.287 2.287 0 0 1 2.2 1.27zm-6.437 5.759h2.592V22.9h-2.588zm-4.268-10.18h-.1a4.1 4.1 0 0 0-3.117-1.338 5.928 5.928 0 1 0 0 11.857 4.031 4.031 0 0 0 3.117-1.355h.1v.847c0 2.27-1.22 3.489-3.167 3.489a3.286 3.286 0 0 1-3-2.117l-2.27.949A5.657 5.657 0 0 0 92.508 46c3.049 0 5.64-1.8 5.64-6.182V29.181h-2.473zm-3 8.2a3.625 3.625 0 1 1 3.2-3.6 3.608 3.608 0 0 1-3.195 3.601zm34-15.461h-6.233v17.444h2.608v-6.606h3.625a5.42 5.42 0 0 0 0-10.84zm.068 8.4h-3.693v-5.981h3.693a2.99 2.99 0 1 1 0 5.979zm16.091-2.49a4.9 4.9 0 0 0-4.641 2.659l2.3.965a2.473 2.473 0 0 1 2.371-1.27 2.507 2.507 0 0 1 2.744 2.236v.169a5.759 5.759 0 0 0-2.71-.678c-2.49 0-5.031 1.372-5.031 3.93a4.031 4.031 0 0 0 4.336 3.845 3.676 3.676 0 0 0 3.32-1.694h.085v1.338h2.507v-6.691a4.777 4.777 0 0 0-5.285-4.827zm-.322 9.553c-.847 0-2.033-.423-2.033-1.491 0-1.355 1.491-1.863 2.761-1.863a4.624 4.624 0 0 1 2.371.593 3.15 3.15 0 0 1-3.1 2.744zm14.753-9.18-2.979 7.553h-.085l-3.1-7.554h-2.795l4.641 10.569-2.642 5.878h2.71l7.148-16.43zm-23.425 11.161h2.592V22.9h-2.592z" transform="translate(15.27 1.511)" style="fill:#fff"/>
    <g id="Group_1460" data-name="Group 1460" transform="translate(13.901 9.96)">
        <path id="Path_14777" data-name="Path 14777" d="M1329.026 301.889a2.8 2.8 0 0 0-.644 1.948v30.844a2.794 2.794 0 0 0 .644 1.965l.1.1 17.274-17.276v-.423l-17.277-17.277z" transform="translate(-1328.376 -301.33)" style="fill:url(#linear-gradient)"/>
        <path id="Path_14778" data-name="Path 14778" d="m1344.229 320.154-5.759-5.759v-.407l5.759-5.759.135.068 6.826 3.879a2.117 2.117 0 0 1 0 4.014l-6.826 3.9z" transform="translate(-1320.443 -296.255)" style="fill:url(#linear-gradient-2)"/>
        <path id="Path_14779" data-name="Path 14779" d="m1352.013 317.455-5.895-5.895-17.379 17.379a2.27 2.27 0 0 0 2.9.085l20.377-11.569" transform="translate(-1328.091 -293.623)" style="fill:url(#linear-gradient-3)"/>
        <path id="Path_14780" data-name="Path 14780" d="m1352.006 313.563-20.377-11.569a2.27 2.27 0 0 0-2.88.085l17.362 17.379z" transform="translate(-1328.084 -301.52)" style="fill:url(#linear-gradient-4)"/>
        <g id="Group_1459" data-name="Group 1459" transform="translate(0 23.696)">
            <path id="Path_14781" data-name="Path 14781" d="M39.958 28.1 19.716 39.6a2.321 2.321 0 0 1-2.795 0l-.1.119.1.1a2.321 2.321 0 0 0 2.795-.017l20.377-11.566z" transform="translate(-16.171 -28.1)" style="isolation:isolate;opacity:.2"/>
            <path id="Path_14782" data-name="Path 14782" class="cls-8" d="M17.086 35.645a2.8 2.8 0 0 1-.644-1.965v.2a2.8 2.8 0 0 0 .644 1.965l.1-.1z" transform="translate(-16.437 -24.228)"/>
        </g>
        <path id="Path_14783" data-name="Path 14783" class="cls-8" d="m37.435 26.512-6.945 3.947.119.136 6.826-3.9a2.456 2.456 0 0 0 1.457-2 2.592 2.592 0 0 1-1.457 1.812z" transform="translate(-6.686 -6.763)"/>
        <path id="Path_14784" data-name="Path 14784" d="m19.98 14.761 27.2 15.465a2.592 2.592 0 0 1 1.457 1.812 2.439 2.439 0 0 0-1.457-2.016l-27.2-15.431c-1.948-1.1-3.54-.186-3.54 2.033v.22c0-2.236 1.592-3.151 3.557-2.05z" transform="translate(-16.435 -14.1)" style="opacity:.25;isolation:isolate;fill:#fff"/>
    </g>
</svg>
