<svg xmlns="http://www.w3.org/2000/svg" width="188.251" height="63.948" viewBox="0 0 188.251 63.948">
    <defs>
        <style>
            .cls-1{fill:#fff}
        </style>
    </defs>
    <g id="download-cta-card-apple" transform="translate(-.174)">
        <rect id="Rectangle_1153" data-name="Rectangle 1153" width="188.251" height="63.948" rx="4" transform="translate(.174)"/>
        <path id="Path_14787" data-name="Path 14787" class="cls-1" d="M31.139 21.611a7.923 7.923 0 0 1 3.787-6.641 8.117 8.117 0 0 0-6.408-3.457c-2.68-.272-5.282 1.612-6.661 1.612s-3.5-1.573-5.768-1.534A8.525 8.525 0 0 0 8.9 15.96c-3.1 5.36-.773 13.24 2.2 17.575 1.476 2.136 3.224 4.505 5.5 4.428 2.214-.1 3.049-1.418 5.729-1.418s3.437 1.418 5.748 1.359c2.389-.039 3.884-2.136 5.321-4.272a17.555 17.555 0 0 0 2.427-4.971 7.651 7.651 0 0 1-4.661-7.03z" transform="translate(7 10.819)"/>
        <path id="Path_14788" data-name="Path 14788" class="cls-1" d="M19.913 12.753A7.787 7.787 0 0 0 21.7 7.16a7.942 7.942 0 0 0-5.146 2.66 7.438 7.438 0 0 0-1.826 5.38 6.564 6.564 0 0 0 5.185-2.447z" transform="translate(13.858 6.744)"/>
        <path id="Path_14789" data-name="Path 14789" class="cls-1" d="M33.426 26.91h6.02l-2.971-8.739H36.4l-2.955 8.739zm6.8 2.486h-7.577l-1.806 5.379H27.6l7.185-19.9h3.34l7.185 19.9h-3.262L40.223 29.4z" transform="translate(25.997 14.007)"/>
        <path id="Path_14790" data-name="Path 14790" class="cls-1" d="M48.264 24.97c0-2.913-1.515-4.855-3.826-4.855-2.272 0-3.806 1.961-3.806 4.855s1.534 4.894 3.806 4.894c2.33-.001 3.826-1.942 3.826-4.894zm3.068 0c0 4.505-2.408 7.4-6.059 7.4a4.913 4.913 0 0 1-4.564-2.525h-.058v7.185H37.68v-19.3h2.874v2.408h.058a5.146 5.146 0 0 1 4.6-2.563c3.69 0 6.117 2.913 6.117 7.418z" transform="translate(35.492 16.549)"/>
        <path id="Path_14791" data-name="Path 14791" class="cls-1" d="M56.484 24.97c0-2.913-1.515-4.855-3.826-4.855-2.272 0-3.806 1.961-3.806 4.855s1.534 4.894 3.806 4.894c2.33 0 3.826-1.942 3.826-4.894zm3.068 0c0 4.505-2.427 7.4-6.059 7.4a4.913 4.913 0 0 1-4.564-2.525h-.078v7.185H45.9v-19.3h2.893v2.408h.039a5.146 5.146 0 0 1 4.622-2.563c3.69 0 6.117 2.913 6.117 7.418z" transform="translate(43.235 16.548)"/>
        <path id="Path_14792" data-name="Path 14792" class="cls-1" d="M59.839 29.381c.214 1.981 2.136 3.282 4.758 3.282 2.505 0 4.311-1.3 4.311-3.088 0-1.554-1.087-2.466-3.67-3.107l-2.583-.621c-3.651-.874-5.34-2.583-5.34-5.36 0-3.437 2.991-5.787 7.243-5.787 4.195 0 7.069 2.35 7.185 5.787h-3.01c-.194-1.981-1.825-3.185-4.214-3.185s-4.039 1.223-4.039 2.971c0 1.418 1.049 2.233 3.612 2.874l2.175.544c4.078.971 5.787 2.6 5.787 5.515 0 3.709-2.971 6.039-7.69 6.039-4.408 0-7.379-2.272-7.574-5.865z" transform="translate(53.492 13.846)"/>
        <path id="Path_14793" data-name="Path 14793" class="cls-1" d="M70.418 15.88v3.437h2.777v2.35h-2.777v8c0 1.243.563 1.825 1.767 1.825.311 0 .777-.058.971-.078v2.33a8.254 8.254 0 0 1-1.651.155c-2.913 0-4.078-1.107-4.078-3.923v-8.309h-2.1v-2.35h2.117V15.88z" transform="translate(61.536 14.958)"/>
        <path id="Path_14794" data-name="Path 14794" class="cls-1" d="M80.919 24.978c0-3.107-1.437-4.971-3.845-4.971s-3.845 1.864-3.845 4.971 1.437 4.991 3.845 4.991 3.845-1.845 3.845-4.991zm-10.719 0c0-4.564 2.68-7.418 6.874-7.418s6.874 2.855 6.874 7.418-2.66 7.438-6.874 7.438-6.874-2.855-6.874-7.438z" transform="translate(66.124 16.54)"/>
        <path id="Path_14795" data-name="Path 14795" class="cls-1" d="M78.54 17.727h2.855v2.466h.058a3.457 3.457 0 0 1 3.5-2.622 4.563 4.563 0 0 1 1.029.117v2.777a4.2 4.2 0 0 0-1.359-.194 2.991 2.991 0 0 0-3.107 3.36v8.583h-2.957V17.727z" transform="translate(73.979 16.548)"/>
        <path id="Path_14796" data-name="Path 14796" class="cls-1" d="M85.719 23.658h7.243a3.5 3.5 0 0 0-3.554-3.69 3.69 3.69 0 0 0-3.69 3.69zm10.059 4.311a5.826 5.826 0 0 1-6.253 4.447c-4.214 0-6.836-2.835-6.836-7.379s2.641-7.476 6.719-7.476c4.02 0 6.544 2.738 6.544 7.146v1.01H85.7v.194a3.787 3.787 0 0 0 3.9 4.1 3.282 3.282 0 0 0 3.34-2.039z" transform="translate(77.888 16.54)"/>
        <path id="Path_14797" data-name="Path 14797" class="cls-1" d="M30.125 15.384h1.806a3.437 3.437 0 0 0 0-6.874h-1.806v6.855zm1.962-8.214a4.777 4.777 0 1 1 0 9.554H28.63V7.17z" transform="translate(26.968 6.754)"/>
        <path id="Path_14798" data-name="Path 14798" class="cls-1" d="M38.945 11.728c0-1.554-.7-2.486-1.942-2.486s-1.942.913-1.942 2.486.7 2.486 1.942 2.486 1.942-.914 1.942-2.486zm-5.34 0A3.418 3.418 0 1 1 37 15.476a3.3 3.3 0 0 1-3.4-3.748z" transform="translate(31.625 8.138)"/>
        <path id="Path_14799" data-name="Path 14799" class="cls-1" d="M45.631 15.594h-1.457l-1.5-5.321h-.117l-1.476 5.321H39.63l-2-7.224h1.456l1.282 5.515h.117l1.476-5.515h1.359l1.48 5.515h.117l1.277-5.515h1.437l-1.981 7.224z" transform="translate(35.445 7.884)"/>
        <path id="Path_14800" data-name="Path 14800" class="cls-1" d="M43.63 8.441h1.359v1.165h.117a2.156 2.156 0 0 1 2.136-1.3 2.33 2.33 0 0 1 2.524 2.68v4.661h-1.437v-4.312c0-1.165-.5-1.748-1.554-1.748a1.651 1.651 0 0 0-1.728 1.845v4.214H43.63z" transform="translate(41.096 7.813)"/>
        <path id="Path_14801" data-name="Path 14801" class="cls-1" d="M47.95 6.92h1.437v10.04H47.95z" transform="translate(45.166 6.518)"/>
        <path id="Path_14802" data-name="Path 14802" class="cls-1" d="M55.055 11.728c0-1.554-.7-2.486-1.942-2.486s-1.942.913-1.942 2.486.7 2.486 1.942 2.486 1.942-.914 1.942-2.486zm-5.34 0a3.418 3.418 0 1 1 3.418 3.748 3.3 3.3 0 0 1-3.418-3.748z" transform="translate(46.799 8.138)"/>
        <path id="Path_14803" data-name="Path 14803" class="cls-1" d="M58.621 13v-.6l-1.767.117c-.99.058-1.437.388-1.437 1.029s.563 1.029 1.34 1.029A1.709 1.709 0 0 0 58.621 13zm-4.641.621c0-1.3.971-2.058 2.68-2.156l1.942-.117v-.621c0-.777-.485-1.2-1.456-1.2-.8 0-1.359.291-1.515.816h-1.36C54.407 9.1 55.572 8.3 57.2 8.3c1.806 0 2.835.893 2.835 2.427v4.933h-1.356v-1.029h-.136a2.427 2.427 0 0 1-2.156 1.146 2.175 2.175 0 0 1-2.408-2.156z" transform="translate(50.845 7.818)"/>
        <path id="Path_14804" data-name="Path 14804" class="cls-1" d="M59.536 13.348c0 1.534.719 2.447 1.923 2.447s1.942-.932 1.942-2.447-.758-2.448-1.943-2.448-1.942.932-1.942 2.447zm-1.476 0c0-2.272 1.165-3.729 2.991-3.729a2.369 2.369 0 0 1 2.214 1.262h.117V6.92H64.8v10.04h-1.361v-1.146h-.117a2.505 2.505 0 0 1-2.272 1.262c-1.825 0-2.99-1.437-2.99-3.728z" transform="translate(54.689 6.518)"/>
        <path id="Path_14805" data-name="Path 14805" class="cls-1" d="M69.9 11.728c0-1.554-.68-2.486-1.942-2.486s-1.942.913-1.942 2.486.719 2.486 1.942 2.486S69.9 13.3 69.9 11.728zm-5.321 0a3.418 3.418 0 1 1 3.4 3.748 3.3 3.3 0 0 1-3.4-3.748z" transform="translate(60.796 8.138)"/>
        <path id="Path_14806" data-name="Path 14806" class="cls-1" d="M69.05 8.44h1.359v1.165h.117a2.156 2.156 0 0 1 2.136-1.3 2.33 2.33 0 0 1 2.505 2.68v4.661h-1.418v-4.312c0-1.165-.5-1.748-1.554-1.748a1.651 1.651 0 0 0-1.728 1.845v4.214H69.05V8.44z" transform="translate(65.04 7.814)"/>
        <path id="Path_14807" data-name="Path 14807" class="cls-1" d="M77.6 7.459v1.826h1.554v1.2H77.6v3.69c0 .777.311 1.107 1.029 1.107a5.009 5.009 0 0 0 .544-.039v1.185a4.7 4.7 0 0 1-.777.078c-1.592 0-2.214-.563-2.214-1.942v-4.1H75v-1.2h1.165V7.44z" transform="translate(70.645 7.008)"/>
        <path id="Path_14808" data-name="Path 14808" class="cls-1" d="M78.15 6.92h1.4v3.98h.117a2.214 2.214 0 0 1 2.194-1.282 2.369 2.369 0 0 1 2.486 2.68v4.662h-1.42v-4.311c0-1.165-.544-1.748-1.554-1.748a1.689 1.689 0 0 0-1.806 1.845v4.214H78.15V6.92z" transform="translate(73.612 6.518)"/>
        <path id="Path_14809" data-name="Path 14809" class="cls-1" d="M83.771 11.388H87.4A1.748 1.748 0 0 0 85.654 9.5a1.845 1.845 0 0 0-1.884 1.884zm5.01 2.33a2.913 2.913 0 0 1-3.146 2.082 3.282 3.282 0 0 1-3.34-3.729 3.321 3.321 0 0 1 3.34-3.771c2.02 0 3.224 1.379 3.224 3.651v.485h-5.088v.078a1.9 1.9 0 0 0 1.923 2.078 1.728 1.728 0 0 0 1.709-.874z" transform="translate(77.487 7.818)"/>
    </g>
</svg>
