<svg id="iconfinder_38-instagram_1161954" xmlns="http://www.w3.org/2000/svg" width="36" height="36" viewBox="0 0 36 36">
    <defs>
        <style>
            .cls-1{fill:#85868a}
        </style>
    </defs>
    <circle id="Ellipse_19" data-name="Ellipse 19" class="cls-1" cx="3.233" cy="3.233" r="3.233" transform="translate(14.621 14.913)"/>
    <path id="Path_1424" data-name="Path 1424" class="cls-1" d="M29.276 19.2h-8.082a4.015 4.015 0 0 0-2.865 1.029 4.015 4.015 0 0 0-1.029 2.865v8.082a4.05 4.05 0 0 0 1.1 2.939 4.142 4.142 0 0 0 2.865 1.029h8.008a4.015 4.015 0 0 0 2.865-1.029 3.764 3.764 0 0 0 1.1-2.865v-8.083a4.142 4.142 0 0 0-1.024-2.867 3.934 3.934 0 0 0-2.938-1.1zm-4.041 12.931a5 5 0 1 1 0-9.992 5 5 0 1 1 0 9.992zm5.216-9.037a1.176 1.176 0 1 1 1.176-1.176 1.16 1.16 0 0 1-1.176 1.176z" transform="translate(-7.381 -8.989)"/>
    <path id="Path_1425" data-name="Path 1425" class="cls-1" d="M21.7 5.2a18 18 0 1 0 18 18 17.987 17.987 0 0 0-18-18zm9.585 22.244a5.8 5.8 0 0 1-1.61 4.171 5.694 5.694 0 0 1-4.1 1.537H17.6a5.694 5.694 0 0 1-4.1-1.537 5.513 5.513 0 0 1-1.61-4.171V19.4a5.415 5.415 0 0 1 5.71-5.712h8.049a5.4 5.4 0 0 1 5.636 5.712v8.049z" transform="translate(-3.7 -5.2)"/>
</svg>
