<svg xmlns="http://www.w3.org/2000/svg" width="76.077" height="64.307" viewBox="0 0 76.077 64.307" fill="#fff">
    <g id="Group_5424" data-name="Group 5424" transform="translate(-.72 -.37)">
        <path id="Path_11650" data-name="Path 11650" class="cls-1" d="M34.82 124.406 54.3 119.9v-5.84l-19.48 4.507z" transform="translate(-18.592 -61.985)"/>
        <path id="Path_11651" data-name="Path 11651" class="cls-1" d="M95.658 15.45 89.85 16.8v5.962l5.808-1.342z" transform="translate(-48.595 -8.222)"/>
        <path id="Path_11652" data-name="Path 11652" class="cls-1" d="m89.82 78.091 5.812-1.351V39.82l-5.812 1.351z" transform="translate(-48.578 -21.509)"/>
        <path id="Path_11653" data-name="Path 11653" class="cls-1" d="M.72 35.98v5.949l5.68-1.31.082 42.023 5.753-1.342V33.32z" transform="translate(0 -17.965)"/>
        <path id="Path_11654" data-name="Path 11654" class="cls-1" d="M49.628 21.933v.023h-.023v.155L44.835 52.2l-4.457-28.07-5.558 1.224 5.73 35.833 8.932-2.06 5.189-32.395 1.214-.291V20.51z" transform="translate(-18.592 -10.981)"/>
        <path id="Path_11655" data-name="Path 11655" class="cls-1" d="m113.02 6.146.009 5.98 25-5.917V.37z" transform="translate(-61.227)"/>
        <path id="Path_11656" data-name="Path 11656" class="cls-1" d="m127.875 27.017-2.706 16.372-2.429-15.181-9.7 2.256v36.979l5.439-1.255V37.6l3.488 21.9 6.867-1.592 3.693-24.263v29.3l5.439-1.26V24.67z" transform="translate(-61.238 -13.249)"/>
    </g>
</svg>
