<svg xmlns="http://www.w3.org/2000/svg" width="56" height="56" viewBox="0 0 56 56">
    <path data-name="Rectangle 487" style="fill:none" d="M0 0h56v56H0z"/>
    <path data-name="Path 11705" d="M12.793 31.807h-2.317a1.159 1.159 0 1 1 0-2.317h2.317a1.159 1.159 0 1 1 0 2.317zm1.159-5.793a1.147 1.147 0 0 0-1.159-1.159h-2.317a1.159 1.159 0 1 0 0 2.317h2.317a1.147 1.147 0 0 0 1.159-1.158zm0-4.634a1.147 1.147 0 0 0-1.159-1.159h-2.317a1.159 1.159 0 0 0 0 2.317h2.317a1.147 1.147 0 0 0 1.159-1.159zm6.948 9.268a1.147 1.147 0 0 0-1.159-1.159h-2.314a1.159 1.159 0 1 0 0 2.317h2.317a1.147 1.147 0 0 0 1.156-1.158zm0-4.634a1.147 1.147 0 0 0-1.159-1.159h-2.314a1.159 1.159 0 1 0 0 2.317h2.317a1.147 1.147 0 0 0 1.156-1.158zm0-4.634a1.147 1.147 0 0 0-1.159-1.159h-2.314a1.159 1.159 0 1 0 0 2.317h2.317a1.147 1.147 0 0 0 1.156-1.159zm6.952 9.269a1.147 1.147 0 0 0-1.152-1.16h-2.321a1.159 1.159 0 1 0 0 2.317H26.7a1.147 1.147 0 0 0 1.155-1.158zm0-4.634a1.147 1.147 0 0 0-1.152-1.16h-2.321a1.159 1.159 0 1 0 0 2.317H26.7a1.147 1.147 0 0 0 1.155-1.158zm0-4.634a1.147 1.147 0 0 0-1.152-1.16h-2.321a1.159 1.159 0 1 0 0 2.317H26.7a1.147 1.147 0 0 0 1.155-1.159zM30.172 4H7v4.634h23.172z" transform="translate(9.608 5.656)" style="opacity:.3;fill:#004da8"/>
    <path data-name="Path 11706" d="M36.758 2H13.586a4.648 4.648 0 0 0-4.634 4.634v4.634a4.648 4.648 0 0 0 4.634 4.632h23.172a4.648 4.648 0 0 0 4.634-4.634V6.634A4.648 4.648 0 0 0 36.758 2zm0 9.269H13.586V6.634h23.172zm6.952 37.075H6.634A4.648 4.648 0 0 1 2 43.71v-2.317h46.344v2.317a4.648 4.648 0 0 1-4.634 4.634zM40.3 20.978a4.654 4.654 0 0 0-4.241-2.757H14.281a4.654 4.654 0 0 0-4.241 2.757L2 39.076h46.344zM19.379 34.441h-2.317a1.159 1.159 0 1 1 0-2.317h2.317a1.159 1.159 0 1 1 0 2.317zm0-4.634h-2.317a1.159 1.159 0 1 1 0-2.317h2.317a1.159 1.159 0 0 1 0 2.317zm0-4.634h-2.317a1.159 1.159 0 1 1 0-2.317h2.317a1.159 1.159 0 0 1 0 2.317zm6.952 9.269h-2.317a1.159 1.159 0 1 1 0-2.317h2.317a1.159 1.159 0 1 1 0 2.317zm0-4.634h-2.317a1.159 1.159 0 0 1 0-2.317h2.317a1.159 1.159 0 0 1 0 2.317zm0-4.634h-2.317a1.159 1.159 0 0 1 0-2.317h2.317a1.159 1.159 0 0 1 0 2.317zm6.952 9.269h-2.318a1.159 1.159 0 1 1 0-2.317h2.317a1.159 1.159 0 1 1 0 2.317zm0-4.634h-2.318a1.159 1.159 0 1 1 0-2.317h2.317a1.159 1.159 0 1 1 0 2.317zm0-4.634h-2.318a1.159 1.159 0 1 1 0-2.317h2.317a1.159 1.159 0 1 1 0 2.317z" transform="translate(3.021 3.021)" style="fill:#004da8"/>
</svg>
