<svg id="share_location_black_24dp" xmlns="http://www.w3.org/2000/svg" width="56" height="56" viewBox="0 0 56 56">
    <defs>
        <style>
            .cls-2{fill:#004da8}
        </style>
    </defs>
    <g id="Group_1857" data-name="Group 1857">
        <path id="Path_11707" data-name="Path 11707" d="M0 0h56v56H0z" style="fill:none"/>
    </g>
    <g id="Group_1859" data-name="Group 1859" transform="translate(4.772 4.819)">
        <g id="Group_1858" data-name="Group 1858">
            <path id="Path_11708" data-name="Path 11708" class="cls-2" d="M13.02 22.118v4.748a23.386 23.386 0 0 0 12.506-5.195l-3.338-3.361a18.667 18.667 0 0 1-9.168 3.808z" transform="translate(12.501 19.496)"/>
            <path id="Path_11709" data-name="Path 11709" class="cls-2" d="M6.731 25.231A18.731 18.731 0 0 1 23.068 6.756V2.05a23.29 23.29 0 0 0 0 46.362v-4.706A18.731 18.731 0 0 1 6.731 25.231z" transform="translate(-2.03 -2.05)"/>
            <path id="Path_11710" data-name="Path 11710" class="cls-2" d="M22.138 18.186h4.748A23.386 23.386 0 0 0 21.691 5.68L18.33 9.041a18.5 18.5 0 0 1 3.808 9.145z" transform="translate(19.57 2.749)"/>
            <path id="Path_11711" data-name="Path 11711" class="cls-2" d="M25.526 7.245A23.463 23.463 0 0 0 13.02 2.05V6.8a18.667 18.667 0 0 1 9.168 3.808z" transform="translate(12.501 -2.05)"/>
            <path id="Path_11712" data-name="Path 11712" class="cls-2" d="m18.33 22.168 3.361 3.338A23.386 23.386 0 0 0 26.886 13h-4.748a18.667 18.667 0 0 1-3.808 9.168z" transform="translate(19.57 12.427)"/>
            <path id="Path_11713" data-name="Path 11713" class="cls-2" d="M26.805 16.467A9.266 9.266 0 0 0 17.4 7 9.266 9.266 0 0 0 8 16.467q0 5.75 9.4 13.623 9.417-7.862 9.405-13.623zm-9.4 2.078a2.471 2.471 0 1 1 2.515-2.471 2.5 2.5 0 0 1-2.52 2.471z" transform="translate(5.825 4.636)"/>
        </g>
    </g>
</svg>
