<svg id="share_location_black_24dp" xmlns="http://www.w3.org/2000/svg" width="36" height="36" viewBox="0 0 36 36">
    <defs>
        <style>
            .cls-2{fill:#0a7aff}
        </style>
    </defs>
    <g id="Group_1848" data-name="Group 1848">
        <path id="Path_11686" data-name="Path 11686" d="M0 0h36v36H0z" style="fill:none"/>
    </g>
    <g id="Group_1850" data-name="Group 1850" transform="translate(3.048 3.078)">
        <g id="Group_1849" data-name="Group 1849">
            <path id="Path_11687" data-name="Path 11687" class="cls-2" d="M13.02 20.742v3.033a14.936 14.936 0 0 0 7.987-3.318l-2.132-2.147a11.922 11.922 0 0 1-5.855 2.432z" transform="translate(3.456 6.07)"/>
            <path id="Path_11688" data-name="Path 11688" class="cls-2" d="M5.033 16.972A12.025 12.025 0 0 1 15.467 5.079V2.05a15 15 0 0 0 0 29.845v-3.03A12.025 12.025 0 0 1 5.033 16.972z" transform="translate(-2.03 -2.05)"/>
            <path id="Path_11689" data-name="Path 11689" class="cls-2" d="M20.762 13.667h3.033a14.936 14.936 0 0 0-3.318-7.987L18.33 7.827a11.812 11.812 0 0 1 2.432 5.84z" transform="translate(6.11 -.238)"/>
            <path id="Path_11690" data-name="Path 11690" class="cls-2" d="M21.007 5.368A14.985 14.985 0 0 0 13.02 2.05v3.033a11.922 11.922 0 0 1 5.855 2.432z" transform="translate(3.456 -2.05)"/>
            <path id="Path_11691" data-name="Path 11691" class="cls-2" d="m18.33 18.855 2.147 2.132A14.936 14.936 0 0 0 23.795 13h-3.033a11.922 11.922 0 0 1-2.432 5.855z" transform="translate(6.11 3.416)"/>
            <path id="Path_11692" data-name="Path 11692" class="cls-2" d="M20.01 13.143a6.007 6.007 0 1 0-12.01 0q0 3.73 6.005 8.839 6.013-5.102 6.005-8.839zm-6.005 1.348a1.6 1.6 0 1 1 1.606-1.6 1.607 1.607 0 0 1-1.606 1.6z" transform="translate(.947 .431)"/>
        </g>
    </g>
</svg>
