<svg xmlns="http://www.w3.org/2000/svg" width="130" height="37" viewBox="0 0 130 37">
    <defs>
        <style>
            .cls-1{fill:#212529}
        </style>
    </defs>
    <g id="shopify_logo_whitebg" transform="translate(0 -.394)">
        <g id="Group_1838" data-name="Group 1838" transform="translate(0 .394)">
            <path id="Path_11683" data-name="Path 11683" class="cls-1" d="M27.716 7.334a.327.327 0 0 0-.31-.286c-.129 0-2.684-.052-2.684-.052s-2.142-2.079-2.348-2.312a.853.853 0 0 0-.774-.1s-.413.13-1.084.338A7.78 7.78 0 0 0 20 3.644a3.622 3.622 0 0 0-3.226-2.235 1.051 1.051 0 0 0-.284.026c-.052-.052-.077-.1-.129-.13A2.857 2.857 0 0 0 14.116.4c-1.729.052-3.458 1.325-4.877 3.56a14.709 14.709 0 0 0-1.962 5.089c-1.987.624-3.377 1.066-3.432 1.066-1.006.312-1.032.338-1.161 1.3C2.632 12.142 0 32.645 0 32.645l22.09 3.846 9.574-2.391c-.026 0-3.922-26.584-3.948-26.766zm-8.31-2.053q-.774.234-1.7.546a9.676 9.676 0 0 0-.516-3.17c1.31.207 1.958 1.715 2.216 2.624zm-2.864.884c-1.161.364-2.426.754-3.69 1.143a8.985 8.985 0 0 1 1.857-3.638 3.755 3.755 0 0 1 1.239-.91 7.674 7.674 0 0 1 .594 3.405zm-2.374-4.6a1.669 1.669 0 0 1 1.032.286 4.577 4.577 0 0 0-1.342 1.065 10.159 10.159 0 0 0-2.3 4.833c-1.058.338-2.09.65-3.019.936.622-2.832 2.971-7.042 5.629-7.12z" transform="translate(0 -.394)"/>
            <g id="Group_1837" data-name="Group 1837" transform="translate(5.884 4.13)">
                <path id="Path_11684" data-name="Path 11684" class="cls-1" d="M90.916 18.9c-.129 0-2.684-.052-2.684-.052s-2.142-2.081-2.348-2.315a.413.413 0 0 0-.284-.13v31.963l9.574-2.393s-3.9-26.608-3.923-26.79a.376.376 0 0 0-.335-.283z" transform="translate(-69.394 -16.4)"/>
                <path id="Path_11685" data-name="Path 11685" d="m33.69 44-1.11 4.211a6.112 6.112 0 0 0-2.71-.471c-2.17.135-2.17 1.522-2.17 1.86.129 1.883 5.006 2.3 5.29 6.722.206 3.479-1.806 5.859-4.748 6.042a7.187 7.187 0 0 1-5.442-1.908l.748-3.217s1.961 1.491 3.51 1.386a1.382 1.382 0 0 0 1.342-1.491c-.155-2.459-4.129-2.3-4.387-6.356-.206-3.4 1.987-6.827 6.839-7.14A5.744 5.744 0 0 1 33.69 44z" transform="translate(-22.8 -36.593)" style="fill:#fff"/>
            </g>
        </g>
        <g id="Group_1839" data-name="Group 1839" transform="translate(37.666 7.717)">
            <path id="s_4_" class="cls-1" d="M150.122 60.777c-1.11-.594-1.677-1.11-1.677-1.806 0-.877.8-1.445 2.039-1.445a7.379 7.379 0 0 1 2.735.594l1.006-3.1s-.929-.723-3.664-.723c-3.819 0-6.477 2.194-6.477 5.264 0 1.755 1.239 3.071 2.89 4.026 1.342.748 1.806 1.29 1.806 2.09 0 .826-.671 1.5-1.91 1.5a8.612 8.612 0 0 1-3.587-.955l-1.084 3.1a8.184 8.184 0 0 0 4.31 1.084c3.923 0 6.761-1.935 6.761-5.419-.025-1.887-1.444-3.229-3.148-4.21z" transform="translate(-142.2 -47.461)"/>
            <path id="h_4_" class="cls-1" d="M200.113 35.477a5.893 5.893 0 0 0-4.619 2.323l-.052-.026L197.119 29h-4.361L188.5 51.348h4.361l1.445-7.639c.568-2.89 2.064-4.671 3.458-4.671.981 0 1.368.671 1.368 1.626a9.829 9.829 0 0 1-.181 1.935l-1.651 8.749h4.361l1.7-9.032a17.258 17.258 0 0 0 .31-2.864c.029-2.478-1.262-3.975-3.558-3.975z" transform="translate(-176.552 -28.69)"/>
            <path id="o_4_" class="cls-1" d="M260.548 54.1c-5.264 0-8.748 4.748-8.748 10.039 0 3.381 2.09 6.116 6.013 6.116 5.161 0 8.645-4.619 8.645-10.039.026-3.123-1.807-6.116-5.91-6.116zm-2.142 12.826c-1.5 0-2.116-1.265-2.116-2.864 0-2.5 1.29-6.581 3.664-6.581 1.548 0 2.065 1.342 2.065 2.632 0 2.687-1.319 6.813-3.613 6.813z" transform="translate(-223.517 -47.313)"/>
            <path id="p_4_" class="cls-1" d="M316.906 54.1a5.984 5.984 0 0 0-4.619 2.606h-.052l.258-2.348h-3.871c-.181 1.574-.542 4-.877 5.806l-3.045 16h4.361l1.213-6.477h.1a5.115 5.115 0 0 0 2.555.568c5.135 0 8.49-5.264 8.49-10.58.003-2.943-1.313-5.575-4.513-5.575zm-4.181 12.877a2.751 2.751 0 0 1-1.806-.645l.723-4.077c.516-2.735 1.935-4.542 3.458-4.542 1.342 0 1.755 1.239 1.755 2.4 0 2.838-1.678 6.864-4.129 6.864z" transform="translate(-262.765 -47.313)"/>
            <path id="dot_4_" class="cls-1" d="M386.5 29.8a2.5 2.5 0 0 0-2.5 2.529 2.028 2.028 0 0 0 2.065 2.194h.052a2.458 2.458 0 0 0 2.555-2.529A2.079 2.079 0 0 0 386.5 29.8z" transform="translate(-321.601 -29.284)"/>
            <path id="i_4_" class="cls-1" d="M370 70.984h4.361l2.968-15.484h-4.387z" transform="translate(-311.214 -48.352)"/>
            <path id="f_4_" class="cls-1" d="M411.822 34.922h-3.045l.155-.723c.258-1.5 1.135-2.813 2.606-2.813a4.4 4.4 0 0 1 1.394.232l.852-3.432a5.609 5.609 0 0 0-2.374-.387 6.573 6.573 0 0 0-4.284 1.445A8.154 8.154 0 0 0 404.6 34.2l-.129.723h-2.039l-.645 3.3h2.039L401.5 50.458h4.361l2.323-12.232h3.016z" transform="translate(-334.585 -27.8)"/>
            <path id="y_4_" class="cls-1" d="M447.8 55.5s-2.735 6.89-3.948 10.658h-.052c-.077-1.213-1.084-10.658-1.084-10.658h-4.594l2.632 14.219a.949.949 0 0 1-.1.723 7.657 7.657 0 0 1-2.374 2.632 10.078 10.078 0 0 1-2.477 1.239l1.213 3.716a10.052 10.052 0 0 0 4.284-2.374c1.987-1.858 3.845-4.748 5.729-8.671l5.339-11.484z" transform="translate(-360.033 -48.352)"/>
        </g>
    </g>
</svg>
