<svg id="shopify_logo_whitebg" xmlns="http://www.w3.org/2000/svg" width="78.091" height="22.226" viewBox="0 0 78.091 22.226">
    <defs>
        <style>
            .cls-1{fill:#fff}
        </style>
    </defs>
    <g id="Group_1838" data-name="Group 1838">
        <path id="Path_11683" data-name="Path 11683" class="cls-1" d="M16.649 4.563a.2.2 0 0 0-.186-.172c-.078 0-1.612-.031-1.612-.031s-1.287-1.249-1.411-1.389a.513.513 0 0 0-.465-.062l-.651.2a4.674 4.674 0 0 0-.31-.765A2.176 2.176 0 0 0 10.076 1a.632.632 0 0 0-.171.016c-.03-.028-.046-.059-.077-.075A1.716 1.716 0 0 0 8.479.4 3.916 3.916 0 0 0 5.55 2.534a8.835 8.835 0 0 0-1.178 3.06c-1.194.375-2.031.64-2.062.64-.6.187-.62.2-.7.781C1.581 7.451 0 19.767 0 19.767l13.269 2.31 5.751-1.436c-.015 0-2.356-15.969-2.371-16.078zM11.657 3.33q-.465.14-1.023.328a5.812 5.812 0 0 0-.31-1.9c.791.12 1.176 1.025 1.333 1.572zm-1.721.531c-.7.219-1.457.453-2.217.687a5.4 5.4 0 0 1 1.117-2.186 2.256 2.256 0 0 1 .744-.546 4.609 4.609 0 0 1 .357 2.045zM8.51 1.1a1 1 0 0 1 .62.172 2.75 2.75 0 0 0-.806.64 6.1 6.1 0 0 0-1.38 2.9c-.636.2-1.256.39-1.814.562.37-1.701 1.784-4.23 3.38-4.274z" transform="translate(0 -.394)"/>
        <g id="Group_1837" data-name="Group 1837" transform="translate(3.534 2.481)">
            <path id="Path_11684" data-name="Path 11684" class="cls-1" d="M88.793 17.9c-.077 0-1.612-.031-1.612-.031s-1.287-1.25-1.411-1.391a.248.248 0 0 0-.17-.078v19.2l5.751-1.437-2.356-16.091a.226.226 0 0 0-.202-.172z" transform="translate(-75.865 -16.4)"/>
            <path id="Path_11685" data-name="Path 11685" d="m29.342 43.849-.667 2.53a3.672 3.672 0 0 0-1.628-.283c-1.3.079-1.3.911-1.3 1.116.078 1.131 3.007 1.383 3.178 4.038.124 2.09-1.085 3.519-2.852 3.629a4.317 4.317 0 0 1-3.273-1.147l.45-1.933a4.035 4.035 0 0 0 2.108.833.83.83 0 0 0 .806-.9c-.093-1.477-2.48-1.383-2.635-3.818a4.013 4.013 0 0 1 4.108-4.289 3.45 3.45 0 0 1 1.705.224z" transform="translate(-22.8 -39.397)" style="fill:#004da8"/>
        </g>
    </g>
    <g id="Group_1839" data-name="Group 1839" transform="translate(22.626 4.399)">
        <path id="s_4_" class="cls-1" d="M146.959 58.191c-.667-.357-1.008-.667-1.008-1.085 0-.527.481-.868 1.225-.868a4.432 4.432 0 0 1 1.643.357l.6-1.86a3.853 3.853 0 0 0-2.2-.434c-2.294 0-3.891 1.318-3.891 3.162a2.918 2.918 0 0 0 1.736 2.418c.806.45 1.085.775 1.085 1.256 0 .5-.4.9-1.147.9a5.173 5.173 0 0 1-2.155-.574l-.651 1.86a4.916 4.916 0 0 0 2.589.651c2.356 0 4.061-1.163 4.061-3.255a3.142 3.142 0 0 0-1.887-2.528z" transform="translate(-142.2 -50.192)"/>
        <path id="h_4_" class="cls-1" d="M195.476 32.891a3.54 3.54 0 0 0-2.775 1.4l-.031-.016L193.678 29h-2.62L188.5 42.424h2.62l.868-4.589c.341-1.736 1.24-2.806 2.077-2.806.589 0 .822.4.822.977a5.9 5.9 0 0 1-.109 1.163l-.992 5.255h2.62L197.429 37a10.366 10.366 0 0 0 .186-1.721c.015-1.489-.76-2.388-2.139-2.388z" transform="translate(-181.323 -28.814)"/>
        <path id="o_4_" class="cls-1" d="M257.055 54.1c-3.162 0-5.255 2.852-5.255 6.03a3.431 3.431 0 0 0 3.612 3.674c3.1 0 5.193-2.775 5.193-6.03a3.391 3.391 0 0 0-3.55-3.674zm-1.287 7.7c-.9 0-1.271-.76-1.271-1.721 0-1.5.775-3.953 2.2-3.953.93 0 1.24.806 1.24 1.581.002 1.617-.789 4.093-2.169 4.093z" transform="translate(-234.81 -50.023)"/>
        <path id="p_4_" class="cls-1" d="M312.032 54.1a3.594 3.594 0 0 0-2.775 1.566h-.031l.155-1.411h-2.325c-.109.946-.326 2.4-.527 3.488l-1.829 9.611h2.62l.729-3.891h.062a3.073 3.073 0 0 0 1.535.341c3.085 0 5.1-3.162 5.1-6.356-.001-1.767-.792-3.348-2.714-3.348zm-2.511 7.735a1.653 1.653 0 0 1-1.085-.388L308.87 59c.31-1.643 1.163-2.728 2.077-2.728.806 0 1.054.744 1.054 1.442-.001 1.703-1.007 4.121-2.48 4.121z" transform="translate(-279.51 -50.023)"/>
        <path id="dot_4_" class="cls-1" d="M385.5 29.8a1.5 1.5 0 0 0-1.5 1.519 1.218 1.218 0 0 0 1.24 1.318h.031a1.477 1.477 0 0 0 1.535-1.519A1.249 1.249 0 0 0 385.5 29.8z" transform="translate(-346.517 -29.49)"/>
        <path id="i_4_" class="cls-1" d="M370 64.8h2.62l1.783-9.3h-2.635z" transform="translate(-334.687 -51.206)"/>
        <path id="f_4_" class="cls-1" d="M407.7 32.078h-1.829l.093-.434c.155-.9.682-1.69 1.566-1.69a2.644 2.644 0 0 1 .837.14l.512-2.062a3.369 3.369 0 0 0-1.426-.233 3.948 3.948 0 0 0-2.573.868 4.9 4.9 0 0 0-1.519 2.976l-.077.434h-1.225l-.388 1.984h1.229l-1.4 7.348h2.62l1.4-7.348h1.814z" transform="translate(-361.304 -27.8)"/>
        <path id="y_4_" class="cls-1" d="M443.008 55.5s-1.643 4.139-2.372 6.4h-.031c-.047-.729-.651-6.4-.651-6.4H437.2l1.581 8.541a.57.57 0 0 1-.062.434 4.6 4.6 0 0 1-1.426 1.581 6.054 6.054 0 0 1-1.488.744l.729 2.232a6.038 6.038 0 0 0 2.573-1.426 17.553 17.553 0 0 0 3.441-5.209l3.209-6.9z" transform="translate(-390.287 -51.206)"/>
    </g>
</svg>
