<svg xmlns="http://www.w3.org/2000/svg" width="150" height="37" viewBox="0 0 150 37">
    <path data-name="Path 11678" d="M57.12 252.5H32.7a6.158 6.158 0 0 0-6.1 6.167v24.667a6.158 6.158 0 0 0 6.1 6.167h24.4a6.158 6.158 0 0 0 6.1-6.167v-24.667a6.1 6.1 0 0 0-6.08-6.167zm-.575 28.306a1.941 1.941 0 0 1-1.95 1.946H35.2a1.958 1.958 0 0 1-1.95-1.946v-19.637a1.963 1.963 0 0 1 1.95-1.969h19.42a1.963 1.963 0 0 1 1.95 1.971l-.025 19.637zm-6.645-5.889a1.116 1.116 0 0 1-1.1 1.112h-7.777a1.116 1.116 0 0 1-1.1-1.112v-7.86a1.116 1.116 0 0 1 1.1-1.112H48.8a1.116 1.116 0 0 1 1.1 1.112zm30.245 8.214a8.043 8.043 0 0 1-5.724-2.325 6.9 6.9 0 0 1-2.05-4.852h2.2a4.566 4.566 0 0 0 1.4 3.26 5.883 5.883 0 0 0 4.174 1.668h.025c3.074 0 5.549-2.173 5.549-4.827 0-2-1.1-3.589-6.424-4.827a9.579 9.579 0 0 1-4.6-2.123 5.518 5.518 0 0 1-1.55-4.12 6.613 6.613 0 0 1 6.874-6.318 7.282 7.282 0 0 1 4.824 1.769 6.006 6.006 0 0 1 2.075 4.5h-2.2c0-2.249-2.1-4.069-4.7-4.069-2.55 0-4.674 1.87-4.674 4.094 0 2.022.7 3.21 4.449 4.094 4 .935 8.1 2.5 8.124 7a6.736 6.736 0 0 1-2.3 5.029 8 8 0 0 1-5.474 2.047zm25.9 6.318v-9.73h-.05a7.56 7.56 0 0 1-6.474 3.336 8.808 8.808 0 1 1 0-17.615 7.518 7.518 0 0 1 6.474 3.387h.05v-2.957h2.125v23.58zm-6.524-22.064a6.878 6.878 0 1 0 6.649 6.9 6.772 6.772 0 0 0-6.657-6.899zm45.667 15.29v-2.957h-.05a7.591 7.591 0 0 1-6.474 3.336 8.808 8.808 0 1 1 0-17.615 7.431 7.431 0 0 1 6.474 3.387h.05v-2.956h2.112v16.781h-2.12zm-6.549-15.29a6.878 6.878 0 1 0 6.649 6.9 6.756 6.756 0 0 0-6.657-6.899zm15.023 5.459v9.831h-2.125v-16.78h2.125v2.426h.05c.925-2.148 2.525-2.7 4.674-2.856v2.275a4.768 4.768 0 0 0-4.724 5.105m22.9 2.224h-15.134a6.611 6.611 0 0 0 6.449 6.066 6.249 6.249 0 0 0 5.949-3.968h2.25a8.687 8.687 0 1 1-8.2-11.727 8.918 8.918 0 0 1 8.724 9 5.376 5.376 0 0 0-.05.632m-8.649-7.683a6.607 6.607 0 0 0-6.474 5.737H174.4a6.613 6.613 0 0 0-6.5-5.737M124.634 282.7v-2.628h-.05a5.688 5.688 0 0 1-5.349 3.033 7.086 7.086 0 0 1-5.724-2.527 8.622 8.622 0 0 1-1.45-5.434v-9.326h2.125v9.3c0 3.488 1.25 6.04 5.074 6.04a4.806 4.806 0 0 0 3.549-1.365c1.475-1.415 1.75-3.083 1.75-5.055v-8.921h2.125V282.7z" style="fill:#212529" transform="translate(-26.6 -252.5)"/>
</svg>
