<svg xmlns="http://www.w3.org/2000/svg" width="90.105" height="22.226" viewBox="0 0 90.105 22.226">
    <path data-name="Path 11678" d="M44.933 252.5H30.264a3.7 3.7 0 0 0-3.664 3.7v14.817a3.7 3.7 0 0 0 3.664 3.7h14.654a3.7 3.7 0 0 0 3.664-3.7V256.2a3.667 3.667 0 0 0-3.649-3.7zm-.345 17a1.166 1.166 0 0 1-1.171 1.169H31.765a1.176 1.176 0 0 1-1.171-1.169v-11.8a1.179 1.179 0 0 1 1.171-1.184h11.667a1.179 1.179 0 0 1 1.171 1.184l-.015 11.8zm-3.994-3.537a.67.67 0 0 1-.661.668h-4.67a.67.67 0 0 1-.661-.668v-4.721a.67.67 0 0 1 .661-.668h4.67a.67.67 0 0 1 .661.668zm18.168 4.937a4.831 4.831 0 0 1-3.438-1.4 4.142 4.142 0 0 1-1.231-2.915h1.321a2.743 2.743 0 0 0 .841 1.958 3.534 3.534 0 0 0 2.508 1h.015a3.14 3.14 0 0 0 3.333-2.9c0-1.2-.661-2.156-3.859-2.9a5.754 5.754 0 0 1-2.763-1.275 3.315 3.315 0 0 1-.931-2.468 3.972 3.972 0 0 1 4.129-3.8 4.374 4.374 0 0 1 2.9 1.063 3.608 3.608 0 0 1 1.246 2.7H61.51a2.652 2.652 0 0 0-2.823-2.444 2.679 2.679 0 0 0-2.808 2.459c0 1.215.42 1.928 2.673 2.459 2.4.562 4.865 1.5 4.88 4.205a4.046 4.046 0 0 1-1.381 3.021 4.806 4.806 0 0 1-3.288 1.23zm15.556 3.8v-5.85h-.03a4.541 4.541 0 0 1-3.889 2 5.291 5.291 0 1 1 0-10.581 4.516 4.516 0 0 1 3.889 2.034h.03v-1.776h1.276V274.7zM70.4 261.442a4.132 4.132 0 1 0 3.994 4.145 4.068 4.068 0 0 0-3.994-4.145zm27.432 9.185v-1.777H97.8a4.56 4.56 0 0 1-3.889 2 5.291 5.291 0 1 1 0-10.581 4.464 4.464 0 0 1 3.889 2.034h.03v-1.776h1.276v10.08h-1.275zm-3.932-9.185a4.132 4.132 0 1 0 3.994 4.145 4.058 4.058 0 0 0-3.994-4.145zm9.024 3.279v5.906h-1.276v-10.081h1.276V262h.03a2.829 2.829 0 0 1 2.808-1.716v1.366a2.864 2.864 0 0 0-2.838 3.067m13.754 1.336h-9.084a3.971 3.971 0 0 0 3.874 3.644 3.754 3.754 0 0 0 3.574-2.383h1.351a5.218 5.218 0 1 1-4.925-7.044 5.357 5.357 0 0 1 5.24 5.4 3.229 3.229 0 0 0-.03.38m-5.2-4.615a3.969 3.969 0 0 0-3.889 3.446h7.793a3.972 3.972 0 0 0-3.9-3.446m-25.991 9.2v-1.579h-.03a3.417 3.417 0 0 1-3.213 1.822 4.257 4.257 0 0 1-3.438-1.518 5.179 5.179 0 0 1-.871-3.264v-5.6h1.276v5.587c0 2.1.751 3.628 3.048 3.628a2.887 2.887 0 0 0 2.132-.82 3.814 3.814 0 0 0 1.051-3.036V260.5h1.274v10.141z" transform="translate(-26.6 -252.5)" style="fill:#fff"/>
</svg>
