<svg xmlns="http://www.w3.org/2000/svg" width="56" height="56" viewBox="0 0 56 56">
    <path data-name="Path 11702" d="M0 0h56v56H0z" style="fill:none"/>
    <path data-name="Path 11703" d="M21.333 6.01A16.433 16.433 0 1 0 37.6 22.442 16.336 16.336 0 0 0 21.333 6.01zm2.323 18.78h-4.647V10.7h4.646z" transform="translate(6.832 7.894)" style="opacity:.3;fill:#004da8"/>
    <path data-name="Path 11704" d="M17.042 1.01h13.971v4.663H17.042zM21.7 17.329h4.657v13.988H21.7zm18.7-1.445 3.307-3.31a25.742 25.742 0 0 0-3.283-3.287l-3.31 3.313a20.985 20.985 0 1 0 3.286 3.284zM24.028 45.3a16.319 16.319 0 1 1 16.3-16.319 16.3 16.3 0 0 1-16.3 16.319z" transform="translate(4.137 1.361)" style="fill:#004da8"/>
</svg>
