<svg xmlns="http://www.w3.org/2000/svg" width="36.54" height="36.54" viewBox="0 0 36.54 36.54">
    <path d="M24.807 15.134a3.694 3.694 0 0 0-2.488 3.715l.038.632-.638-.077a10.37 10.37 0 0 1-6.074-2.993l-.842-.839-.217.619a3.729 3.729 0 0 0 .791 3.819c.51.542.4.619-.485.3a1.516 1.516 0 0 0-.6-.142 4.636 4.636 0 0 0 .459 1.729 4.122 4.122 0 0 0 1.749 1.649l.625.3-.74.013c-.714 0-.74.013-.663.284a3.86 3.86 0 0 0 2.386 2.116l.791.27-.689.413a7.156 7.156 0 0 1-3.42.954 3.75 3.75 0 0 0-1.047.1 9.75 9.75 0 0 0 2.463 1.135 10.767 10.767 0 0 0 8.371-.955 11.218 11.218 0 0 0 4.25-5.007A13.308 13.308 0 0 0 29.7 19.3c0-.594.038-.671.753-1.381a8.41 8.41 0 0 0 .893-.993c.128-.245.114-.245-.536-.026-1.085.387-1.238.336-.7-.245a3.761 3.761 0 0 0 .868-1.381c0-.038-.191.026-.409.142a7.053 7.053 0 0 1-1.123.438l-.689.22-.625-.426a5.187 5.187 0 0 0-1.085-.568 4.359 4.359 0 0 0-2.24.054zM22.27 40.54a18.27 18.27 0 1 1 18.27-18.27 18.27 18.27 0 0 1-18.27 18.27z" transform="translate(-4 -4)" style="fill:#85868a;fill-rule:evenodd"/>
</svg>
