<svg id="woocommerce-logo-black" xmlns="http://www.w3.org/2000/svg" width="109.327" height="22.226" viewBox="0 0 109.327 22.226">
    <defs>
        <style>
            .cls-1{fill:#fff;fill-rule:evenodd}
        </style>
    </defs>
    <path id="Path_11679" data-name="Path 11679" class="cls-1" d="M151.091 57.076q-.827-.178-1.58.933a5.052 5.052 0 0 0-.8 1.809 5.426 5.426 0 0 0-.111 1.113 3.917 3.917 0 0 0 .267 1.37q.333.867.889.978a1.456 1.456 0 0 0 1.224-.489 4.014 4.014 0 0 0 1.157-2.248 5.417 5.417 0 0 0 .111-1.113 3.915 3.915 0 0 0-.267-1.379q-.333-.86-.89-.974z" transform="translate(-129.126 -50.769)"/>
    <path id="Path_11680" data-name="Path 11680" class="cls-1" d="M216.171 57.076q-.824-.178-1.58.933a5 5 0 0 0-.8 1.809 5.43 5.43 0 0 0-.111 1.113 3.917 3.917 0 0 0 .267 1.37q.333.867.889.978a1.465 1.465 0 0 0 1.227-.486 4.015 4.015 0 0 0 1.154-2.245 5.417 5.417 0 0 0 .111-1.113 3.912 3.912 0 0 0-.266-1.379q-.334-.866-.891-.98z" transform="translate(-184.72 -50.769)"/>
    <path id="Path_11681" data-name="Path 11681" class="cls-1" d="M48.653 14.44h-30.2A3.469 3.469 0 0 0 15 17.92v11.6A3.467 3.467 0 0 0 18.455 33h14.312l6.543 3.669L37.827 33h10.83a3.466 3.466 0 0 0 3.451-3.477V17.92a3.467 3.467 0 0 0-3.455-3.48zM30.207 29.714a1.868 1.868 0 0 1-.177 1 .954.954 0 0 1-.808.551 1.553 1.553 0 0 1-1.2-.566 15.336 15.336 0 0 1-3.359-6.5q-1.46 2.941-2.191 4.4-1.336 2.588-2.29 2.654-.619.044-1.054-1.047-1.168-3-2.506-11.589a1.313 1.313 0 0 1 .24-1.029 1.247 1.247 0 0 1 .949-.472 1.127 1.127 0 0 1 1.326 1.1q.713 4.777 1.526 8.11l3.33-6.362a1.446 1.446 0 0 1 1.141-.912q1-.071 1.249 1.281a28.63 28.63 0 0 0 1.436 5.218q.6-5.814 2-8.406a1.168 1.168 0 0 1 1-.676 1.327 1.327 0 0 1 .957.3 1.179 1.179 0 0 1 .463.882 1.3 1.3 0 0 1-.146.735 18.273 18.273 0 0 0-1.46 5.515 27.755 27.755 0 0 0-.426 5.813zm9.31-2.4a4.043 4.043 0 0 1-3.56 2.283 3.908 3.908 0 0 1-.822-.09 3.506 3.506 0 0 1-2.426-1.764 5.918 5.918 0 0 1-.73-3.025 8.143 8.143 0 0 1 1.18-4.3 4.073 4.073 0 0 1 3.559-2.283 4.028 4.028 0 0 1 .824.088 3.521 3.521 0 0 1 2.424 1.764 5.8 5.8 0 0 1 .73 3 8.277 8.277 0 0 1-1.179 4.326zm9.51 0a4.038 4.038 0 0 1-3.559 2.286 3.908 3.908 0 0 1-.822-.09 3.514 3.514 0 0 1-2.426-1.764 5.918 5.918 0 0 1-.73-3.025 8.155 8.155 0 0 1 1.179-4.3 4.076 4.076 0 0 1 3.56-2.283 4.028 4.028 0 0 1 .824.088 3.521 3.521 0 0 1 2.424 1.764 5.8 5.8 0 0 1 .73 3 8.259 8.259 0 0 1-1.18 4.326z" transform="translate(-15 -14.44)"/>
    <path id="Path_11682" data-name="Path 11682" d="M286.514 42.5A5.155 5.155 0 0 0 285 46.319a5.509 5.509 0 0 0 1.5 4.026 5.232 5.232 0 0 0 3.927 1.528 6.153 6.153 0 0 0 1.582-.247v-2.449a5.015 5.015 0 0 1-1.382.232 2.458 2.458 0 0 1-1.927-.809 3.609 3.609 0 0 1 0-4.324 2.283 2.283 0 0 1 1.805-.835 5.577 5.577 0 0 1 1.509.219V41.2a6.486 6.486 0 0 0-1.656-.2 5.231 5.231 0 0 0-3.844 1.5zm10.527-1.5a4.061 4.061 0 0 0-3.279 1.4 5.809 5.809 0 0 0-1.168 3.893 6.416 6.416 0 0 0 1.168 4.142 4.13 4.13 0 0 0 3.4 1.436 4.026 4.026 0 0 0 3.318-1.436 6.265 6.265 0 0 0 1.171-4.028 6.03 6.03 0 0 0-1.183-4A4.244 4.244 0 0 0 297.041 41zm1.2 7.886a1.349 1.349 0 0 1-1.2.643 1.218 1.218 0 0 1-1.11-.643 5.677 5.677 0 0 1-.381-2.56q0-2.989 1.509-2.989 1.606 0 1.606 3.024a5.182 5.182 0 0 1-.422 2.523zm10.908-7.594-.543 2.319q-.212.891-.4 1.826l-.3 1.606q-.438-2.405-1.187-5.747h-3.527l-1.323 10.324h2.642l.719-7.115 1.8 7.115h1.888l1.72-7.117.746 7.1h2.762l-1.4-10.313zm12.635 0-.543 2.319q-.212.891-.4 1.826l-.3 1.606q-.438-2.405-1.189-5.747h-3.525L314.5 51.61h2.642l.717-7.115 1.805 7.115h1.887l1.726-7.106.746 7.1h2.762l-1.4-10.313zm8.574 6.236h2.483V45.38h-2.481v-1.9h2.854v-2.19h-5.643v10.325h5.662v-2.21h-2.873zM341.09 45.9a2.814 2.814 0 0 0-.71-3.763 5.124 5.124 0 0 0-3.111-.844h-3.251v10.322h2.791v-4.708h.045l2.255 4.7h2.947l-2.229-4.656a2.69 2.69 0 0 0 1.263-1.051zm-4.28-.166v-2.455a2.6 2.6 0 0 1 1.421.333 1.174 1.174 0 0 1 .429 1.022q-.001 1.066-1.851 1.097zm6.364-3.229a5.147 5.147 0 0 0-1.519 3.816 5.478 5.478 0 0 0 1.5 4.019 5.275 5.275 0 0 0 3.927 1.528 6.154 6.154 0 0 0 1.587-.24v-2.451a5.016 5.016 0 0 1-1.382.232 2.46 2.46 0 0 1-1.929-.809 3.189 3.189 0 0 1-.726-2.2 3.148 3.148 0 0 1 .719-2.126 2.283 2.283 0 0 1 1.805-.835 5.585 5.585 0 0 1 1.513.219V41.2a6.486 6.486 0 0 0-1.66-.2 5.231 5.231 0 0 0-3.835 1.5zm9.054 6.9v-1.88h2.483V45.38h-2.483v-1.9h2.854v-2.19h-5.644v10.325h5.662v-2.21z" transform="translate(-245.772 -37.067)" style="fill:#fff"/>
</svg>
