<svg xmlns="http://www.w3.org/2000/svg" width="168" height="37" viewBox="0 0 168 37">
    <defs>
        <style>
            .cls-1{fill:#212529;fill-rule:evenodd}
        </style>
    </defs>
    <g id="woocommerce-logo-black" transform="translate(-15 -14.44)">
        <path id="Path_11679" data-name="Path 11679" class="cls-1" d="M152.428 57.089q-1.27-.274-2.428 1.434a7.764 7.764 0 0 0-1.23 2.781 8.337 8.337 0 0 0-.171 1.71 6.019 6.019 0 0 0 .411 2.105q.512 1.333 1.367 1.5a2.237 2.237 0 0 0 1.881-.752 6.169 6.169 0 0 0 1.777-3.454 8.324 8.324 0 0 0 .171-1.71 6.017 6.017 0 0 0-.411-2.118q-.512-1.321-1.367-1.496z" transform="translate(-103.675 -31.839)"/>
        <path id="Path_11680" data-name="Path 11680" class="cls-1" d="M217.508 57.089q-1.266-.274-2.428 1.434a7.688 7.688 0 0 0-1.23 2.781 8.338 8.338 0 0 0-.171 1.71 6.019 6.019 0 0 0 .411 2.105q.512 1.333 1.367 1.5a2.251 2.251 0 0 0 1.885-.747 6.17 6.17 0 0 0 1.773-3.449 8.323 8.323 0 0 0 .171-1.71 6.012 6.012 0 0 0-.408-2.118q-.515-1.331-1.37-1.506z" transform="translate(-154.178 -31.839)"/>
        <path id="Path_11681" data-name="Path 11681" class="cls-1" d="M66.714 14.44H20.31A5.569 5.569 0 0 0 15 20.234v19.31a5.566 5.566 0 0 0 5.31 5.789H42.3l10.056 6.107-2.278-6.107h16.643a5.564 5.564 0 0 0 5.3-5.789v-19.31a5.566 5.566 0 0 0-5.31-5.794zM38.368 39.867a3.338 3.338 0 0 1-.272 1.664 1.471 1.471 0 0 1-1.241.918 2.312 2.312 0 0 1-1.845-.942q-3.25-3.635-5.162-10.817-2.244 4.9-3.366 7.324-2.053 4.308-3.519 4.418-.952.073-1.62-1.743-1.794-4.989-3.85-19.289a2.327 2.327 0 0 1 .368-1.713 1.869 1.869 0 0 1 1.459-.787q1.775-.135 2.038 1.826 1.1 7.953 2.345 13.5l5.117-10.591q.693-1.434 1.753-1.518 1.535-.117 1.919 2.132a50.813 50.813 0 0 0 2.208 8.686q.92-9.678 3.072-13.994a1.8 1.8 0 0 1 1.539-1.126 1.937 1.937 0 0 1 1.47.5 2.016 2.016 0 0 1 .711 1.469 2.32 2.32 0 0 1-.224 1.224q-1.364 2.761-2.244 9.181a49.983 49.983 0 0 0-.656 9.678zm14.306-3.995q-2.087 3.8-5.471 3.8a5.562 5.562 0 0 1-1.263-.149 5.439 5.439 0 0 1-3.728-2.937 10.514 10.514 0 0 1-1.122-5.035 14.422 14.422 0 0 1 1.813-7.16q2.118-3.8 5.469-3.8a5.733 5.733 0 0 1 1.266.147 5.461 5.461 0 0 1 3.725 2.937 10.291 10.291 0 0 1 1.122 5 14.662 14.662 0 0 1-1.811 7.2zm14.614 0q-2.083 3.8-5.469 3.8a5.562 5.562 0 0 1-1.263-.149 5.45 5.45 0 0 1-3.728-2.937 10.514 10.514 0 0 1-1.122-5.035 14.444 14.444 0 0 1 1.811-7.16q2.121-3.8 5.471-3.8a5.733 5.733 0 0 1 1.266.147 5.461 5.461 0 0 1 3.725 2.937 10.29 10.29 0 0 1 1.122 5 14.63 14.63 0 0 1-1.813 7.2z"/>
        <path id="Path_11682" data-name="Path 11682" d="M287.327 43.31A7.922 7.922 0 0 0 285 49.174a8.465 8.465 0 0 0 2.307 6.187 8.039 8.039 0 0 0 6.035 2.347 9.454 9.454 0 0 0 2.43-.379v-3.763a7.706 7.706 0 0 1-2.123.357 3.777 3.777 0 0 1-2.962-1.243 5.546 5.546 0 0 1-.007-6.645 3.508 3.508 0 0 1 2.774-1.284 8.571 8.571 0 0 1 2.318.337v-3.782a9.966 9.966 0 0 0-2.545-.306 8.038 8.038 0 0 0-5.9 2.31zM303.5 41a6.24 6.24 0 0 0-5.038 2.145 8.926 8.926 0 0 0-1.8 5.983q0 4.161 1.8 6.364a6.347 6.347 0 0 0 5.22 2.206 6.187 6.187 0 0 0 5.1-2.206 9.627 9.627 0 0 0 1.8-6.189 9.266 9.266 0 0 0-1.818-6.144A6.521 6.521 0 0 0 303.5 41zm1.847 12.118a2.074 2.074 0 0 1-1.847.987 1.872 1.872 0 0 1-1.706-.987 8.723 8.723 0 0 1-.586-3.934q0-4.594 2.318-4.594 2.469 0 2.469 4.648a7.963 7.963 0 0 1-.649 3.88zm16.762-11.67-.835 3.564q-.325 1.369-.608 2.805l-.467 2.469q-.673-3.7-1.824-8.831h-5.42l-2.033 15.865h4.06l1.1-10.933 2.772 10.933h2.9l2.646-10.936 1.15 10.916h4.244l-2.154-15.848zm19.416 0-.835 3.564q-.325 1.369-.608 2.805l-.467 2.469q-.673-3.7-1.827-8.831h-5.417L330.332 57.3h4.06l1.1-10.934 2.775 10.934h2.9l2.653-10.92 1.146 10.92h4.244l-2.15-15.848zM354.7 51.03h3.815v-3.3H354.7v-2.916h4.385v-3.367h-8.671v15.866h8.7v-3.4H354.7zm16.488-2.5a4.324 4.324 0 0 0-1.091-5.783 7.874 7.874 0 0 0-4.78-1.3h-5v15.866h4.289v-7.235h.07l3.465 7.226h4.529l-3.425-7.154a4.134 4.134 0 0 0 1.946-1.622zm-6.578-.256V44.5a3.994 3.994 0 0 1 2.184.512 1.8 1.8 0 0 1 .66 1.571q.003 1.642-2.841 1.689zm9.78-4.962a7.91 7.91 0 0 0-2.334 5.864 8.417 8.417 0 0 0 2.312 6.176 8.105 8.105 0 0 0 6.034 2.347 9.457 9.457 0 0 0 2.439-.368v-3.765a7.707 7.707 0 0 1-2.123.357 3.78 3.78 0 0 1-2.965-1.243 4.9 4.9 0 0 1-1.115-3.377 4.838 4.838 0 0 1 1.1-3.267 3.508 3.508 0 0 1 2.774-1.284 8.582 8.582 0 0 1 2.325.337v-3.783a9.966 9.966 0 0 0-2.544-.306 8.038 8.038 0 0 0-5.9 2.31zm13.914 10.608v-2.89h3.815v-3.3h-3.815v-2.916h4.385v-3.367h-8.674v15.866h8.7v-3.4z" transform="translate(-209.719 -19.532)" style="fill:#212529"/>
    </g>
</svg>
